<?xml version="1.0" encoding="UTF-8" standalone="no"?>
<!-- Created with Inkscape (http://www.inkscape.org/) -->

<svg width="1236.8544mm" height="1316.6472mm" viewBox="0 0 1236.8544 1316.6472" version="1.1" id="svg5" xml:space="preserve" sodipodi:docname="logo-black-plain.svg" inkscape:version="1.2.1 (9c6d41e410, 2022-07-14)" xmlns:inkscape="http://www.inkscape.org/namespaces/inkscape" xmlns:sodipodi="http://sodipodi.sourceforge.net/DTD/sodipodi-0.dtd" xmlns="http://www.w3.org/2000/svg" xmlns:svg="http://www.w3.org/2000/svg"><sodipodi:namedview id="namedview23280" pagecolor="#ffffff" bordercolor="#000000" borderopacity="0.25" inkscape:showpageshadow="2" inkscape:pageopacity="0.0" inkscape:pagecheckerboard="0" inkscape:deskcolor="#d1d1d1" inkscape:document-units="mm" showgrid="false" inkscape:zoom="0.087514742" inkscape:cx="1125.5247" inkscape:cy="2308.1825" inkscape:window-width="1866" inkscape:window-height="1057" inkscape:window-x="1966" inkscape:window-y="-8" inkscape:window-maximized="1" inkscape:current-layer="svg5" /><defs id="defs2" /><g id="layer1" transform="translate(488.41906,517.34359)"><path style="fill:black;fill-opacity:1;stroke:none;stroke-width:2.51544;stroke-opacity:0.466667" d="m 160.52199,430.81815 c -17.70996,-7.55525 -32.9808,-28.81268 -33.04024,-45.99084 0,-13.55956 -8.01566,-46.00567 -16.35525,-66.59747 -4.63178,-11.43832 -17.980366,-35.20916 -29.665266,-52.82408 -11.68479,-17.61501 -22.44866,-34.29111 -23.92236,-37.05712 -2.52528,-4.74167 -4.83079,-4.98815 -39.956668,-4.25742 -41.281809,0.86167 -57.458826,-1.99049 -79.488627,-13.97843 -15.484763,-8.42564 -30.387182,-25.11063 -36.138978,-40.45576 -5.303251,-14.14488 -5.784541,-14.51627 -21.593131,-16.61081 -6.8808,-0.92102 -21.37621,-4.89616 -32.20834,-8.84756 -39.71019,-14.49245 -60.54272,-35.76472 -68.10085,-69.535796 -2.52537,-11.245154 -2.10946,-18.538994 2.67383,-49.241095 15.08668,-96.521184 34.08906,-132.422579 86.89523,-164.143709 11.06693,-6.64611 25.53563,-17.12771 32.151967,-23.28947 20.984062,-19.54319 48.744887,-28.44427 88.5887907,-28.40559 9.68531005,0.0121 36.0290973,-1.36669 58.5431363,-3.03336 29.4672,-2.19951 48.46067,-2.71937 69.434146,0.4453 9.13829,1.37892 18.65241,3.45723 29.57245,6.40083 1.14162,0.30778 2.29863,0.62501 3.47216,0.9518 14.94266,4.16172 32.5675,9.88747 55.3041,17.56827 16.60183,5.60621 38.1088,12.5881 47.7942,15.51742 25.32467,7.65326 47.16733,23.42912 80.27296,57.984697 28.12331,29.356275 29.73657,31.655754 49.23515,70.21022 12.01752,23.76184845 21.79204,46.781098 24.19259,56.992289 4.5932,19.510454 3.46123,44.618216 -2.91151,64.924867 -3.02445,9.620027 -3.56517,18.013027 -2.31737,35.690347 1.2478,17.41889 0.68334,26.41797 -2.25793,36.52225 -7.89094,27.14592 -27.78763,48.51324 -53.70049,57.67275 -10.59454,3.74341 -11.89279,5.1101 -14.45684,15.21734 -5.64181,22.21999 -19.66188,38.31086 -40.2152,46.16016 -9.70608,3.7078 -17.13364,4.14753 -49.78173,2.94128 -8.3406,-0.30453 -15.75137,-0.70106 -22.4457,-1.23176 -25.96683,-2.05828 -41.15291,-6.13376 -58.00845,-14.67494 -26.03479,-13.1941 -46.31762,-43.67337 -49.03902,-73.69213 -1.7826,-19.75109 0.35646,-27.0033 9.38532,-31.67069 15.56498,-8.0484 30.12873,3.33047 30.22675,23.61339 0,23.78558 16.13834,44.24376 40.78272,52.07229 13.94274,4.42675 74.44975,7.98609 86.09301,5.06558 7.38592,-1.84203 16.44732,-17.66545 16.44732,-28.7027 0,-16.6315 7.88798,-28.12331 19.32926,-28.15893 10.0746,-0.0297 24.05312,-5.71619 32.68082,-13.28924 13.91602,-12.21958 16.61972,-21.1622 14.59046,-48.26055 -1.45579,-19.61144 -0.89125,-25.96637 3.86526,-42.942553 C 375.80829,56.519095 373.55035,43.38434 350.5133,-2.7430904 331.90012,-40.01702 330.77417,-41.600512 301.77444,-71.360914 c -17.38624,-17.84369 -34.29705,-32.790706 -40.81537,-36.076666 -6.12022,-3.0838 -24.46012,-9.41202 -40.75899,-14.05864 -16.2958,-4.64662 -39.92106,-12.42164 -52.50016,-17.27914 -10.55096,-4.07539 -19.79542,-7.24998 -28.60626,-9.65721 -22.12967,-6.04613 -41.524126,-7.25183 -72.014886,-5.73251 -129.219893,6.43811 -121.432908,5.08339 -142.696278,24.85526 -6.601497,6.13802 -19.926354,15.98682 -29.608796,21.88718 -26.37039,16.06405 -32.9987,21.78024 -43.51006,37.520492 -12.09189,18.108157 -18.83296,39.594267 -26.86058,85.626647 -7.68592,44.062658 -7.80183,50.24223 -1.21813,63.177889 8.89217,17.427785 40.77076,32.930462 75.02923,36.486642 28.643176,2.97095 33.435378,6.54215 36.783656,27.4281 3.737469,23.28957 21.703009,37.20856 54.270879,42.0424 14.4568367,2.13905 24.382877,1.7825 51.594079,-1.8718 39.12783,-5.25568 40.54209,-4.7743 47.50302,16.18592 2.13914,6.46194 8.0751,17.92993 13.173326,25.48805 30.60409,45.36092 36.47179,55.09092 43.724,72.48309 10.29447,24.69177 16.31658,45.85109 19.9858,70.2132 1.60426,10.6984 4.088,20.86814 5.50513,22.59722 6.29855,7.69184 34.38617,-0.50511 30.71407,-8.97535 -8.90998,-20.53246 -19.0737,-50.32541 -20.35423,-59.65435 -1.33692,-9.72397 -0.71302,-12.33253 4.26039,-17.61482 16.92973,-20.91192 28.28708,-27.97513 36.27586,-28.54794 12.20966,-0.87548 16.551,13.4097 20.89178,16.58671 1.69385,1.22804 -10.69089,12.86342 -16.16894,24.70697 -2.20869,4.77505 -3.29467,9.58395 -1.88274,13.75829 4.911,14.52508 11.68489,31.13886 15.05097,36.92034 3.77614,6.48874 6.12022,14.45386 6.12022,20.81779 0,8.78516 -1.60426,11.90169 -10.75794,21.06714 -14.89944,14.89946 -31.30225,22.31801 -51.76934,23.42032 -9.19215,0.50502 -19.37674,-0.29711 -22.63283,-1.63412 z" id="path627" /><path style="fill:black;fill-opacity:1;stroke:none;stroke-width:1.52003;stroke-opacity:0.466667" d="m -34.770144,796.9564 c -5.091543,-2.76304 -7.064605,-6.48466 -13.245848,-24.97997 -9.177595,-27.4664 -22.99245,-56.23977 -36.739138,-76.51601 -8.624729,-12.7234 -25.03376,-32.09298 -31.1181,-36.73385 l -4.98555,-3.80063 -31.63518,11.49358 c -99.16747,36.03179 -149.85973,43.36207 -184.74265,26.71417 -18.61189,-8.88318 -30.64591,-25.17379 -37.76069,-51.11958 -4.07177,-14.84899 -4.61212,-35.35864 -1.56189,-59.38171 1.16695,-9.25114 1.65165,-18.71602 1.07719,-21.032 -1.57988,-6.28362 -13.45404,-18.10752 -23.64427,-23.53827 -10.88674,-5.80244 -16.19009,-11.76288 -17.53118,-19.70714 -1.16694,-6.94424 1.29259,-17.4288 5.49901,-23.32823 l 2.94258,-4.13279 -6.20824,-3.16875 c -14.92615,-7.61386 -25.6226,-22.3641 -23.47725,-32.36933 0.57457,-2.6769 4.68038,-12.84367 9.12734,-22.59583 9.0143,-19.76993 12.83829,-31.30302 12.83829,-38.71036 0,-5.92818 -3.06999,-8.4936 -24.32102,-20.3175 -30.40897,-16.92258 -42.01746,-27.39111 -46.64395,-42.06947 -4.89041,-15.51334 0.95152,-28.84886 33.53636,-76.49635 52.32073,-76.51962 63.06021,-94.70428 73.33836,-124.18687 l 4.34469,-12.46486 -16.09496,-16.41626 c -17.48454,-17.830989 -22.5401,-25.288686 -26.50059,-39.083879 -3.43619,-11.974676 -2.08258,-22.610116 4.85276,-38.126972 14.16138,-31.6835765 26.64953,-64.514435 32.40707,-85.201752 16.80593,-60.365497 23.65864,-79.528587 38.22035,-106.894457 52.60254,-98.84617 154.19005,-160.36777 297.635234,-180.24896 19.936925,-2.76305 25.048133,-1.86716 31.223996,5.47026 6.8508597,8.14169 4.1866607,23.0123 -4.969422,27.74831 -2.314129,1.20283 -12.290707,3.29254 -22.168433,4.65876 -72.295305,9.99809 -132.168865,31.03019 -180.590125,63.43726 -25.83802,17.29064 -56.70305,47.98856 -73.06182,72.66151 -20.30674,30.62801 -32.01575,58.24519 -44.40883,104.729354 -7.96039,29.856009 -16.4055,54.911284 -26.94932,79.95404 -4.22442,10.032218 -9.59054,23.848924 -11.92266,30.705162 l -4.2423,12.463095 4.38594,6.536684 c 2.41104,3.594201 11.30683,12.967558 19.76816,20.827341 20.40903,18.958514 23.40001,23.540134 22.30484,34.159344 -1.99095,19.28706 -21.28692,65.01538 -39.70323,94.0904 -4.64624,7.33557 -19.49525,28.92601 -32.99778,47.97957 -24.55618,34.65128 -40.88454,59.95433 -40.88454,63.35649 0,2.32488 14.11475,12.08781 29.6405,20.50241 36.34782,19.69814 43.09287,28.80573 41.38011,55.88608 -0.87966,13.86697 -4.38957,25.96739 -13.08421,45.07669 -2.63554,5.79344 -4.26744,10.98541 -3.62471,11.53661 0.64633,0.55658 3.56369,1.90119 6.49003,2.99997 9.17399,3.4488 15.33733,7.82214 19.90642,14.13088 6.93701,9.57617 5.76293,25.05714 -2.6284,34.65843 -1.8653,2.13459 -1.04129,3.25851 6.89223,9.49901 15.65863,12.30136 25.91703,29.15041 27.1576,44.60616 0.41293,5.22081 -0.44883,19.63537 -1.93356,32.03197 -2.2405,18.73939 -2.39313,24.27252 -0.89764,32.82714 3.57982,20.55453 13.12547,34.364 25.57782,37.00316 10.85622,2.30161 36.95817,1.09507 54.37269,-2.49727 31.96901,-6.60856 63.06383,-16.81845 147.44333,-48.40873 20.064345,-7.51158 49.819743,-18.23317 66.121206,-23.82556 45.2363647,-15.515 69.638158,-28.1019 85.733098,-44.21659 9.24771,-9.26023 12.9927,-17.24937 13.03582,-27.80933 0,-11.49544 3.64622,-18.2224 11.64251,-21.75921 6.92272,-3.06275 12.1237,-2.64629 18.48808,1.47222 5.45237,3.52956 7.90476,9.86335 7.88501,20.35877 0,35.19886 -26.18995,65.73701 -76.419103,89.33277 -8.5384903,4.01067 -30.915199,12.60842 -49.724692,19.10568 -45.686956,15.77892 -44.923958,15.44147 -42.238158,18.64425 12.726922,15.17931 17.290545,21.12362 24.726731,32.21503 10.904729,16.26372 29.163023,52.8772 35.916976,72.02239 l 5.154331,14.61383 H 209.3074 c 121.91939,0 221.41004,-0.50271 221.08863,-1.13106 -35.5148,-69.45158 -56.62396,-138.26572 -63.46229,-206.88596 -1.99282,-19.98904 -2.00719,-68.24691 -0.0177,-86.09949 3.92813,-35.40529 13.332,-71.67586 26.25283,-101.24997 15.28705,-34.99411 23.16307,-45.43388 34.27246,-45.43388 5.64618,0 13.06261,4.19742 15.8992,8.99992 4.33568,7.33918 3.29262,14.48809 -4.10044,28.08762 -17.55992,32.29756 -28.83633,68.19116 -33.69799,107.25705 -2.50979,20.16848 -2.8402,67.57181 -0.61036,87.46024 8.06991,71.947 32.066,144.27282 68.7495,207.21813 10.00524,17.17037 11.35532,23.72856 6.43264,31.24013 -5.97306,9.11844 11.46299,8.5511 -260.96971,8.48461 -217.9342503,0 -250.271405,-0.34106 -253.901497,-2.31774 z M 507.44895,213.62836 c -7.79348,-7.79349 -8.1364,-13.47916 -1.68763,-28.12536 12.36072,-28.11089 18.86152,-64.58436 20.23488,-113.510171 0.95153,-33.597381 -0.7719,-63.3097532 -4.95143,-85.921631 -4.18843,-22.64962 -4.34458,-25.838119 -1.52599,-31.073215 6.79706,-12.619257 27.10734,-13.324762 33.38558,-1.16694 3.02325,5.859832 8.04478,30.031926 10.67132,51.3817217 8.41998,68.4335703 1.45413,139.6570853 -18.25477,186.7479953 -9.28173,22.17206 -13.67121,26.64416 -26.20246,26.68551 -5.4775,0.0177 -7.47746,-0.84386 -11.66059,-5.02515 z M -323.79872,58.939122 c -4.70903,-3.703718 -8.53487,-10.491704 -8.53487,-15.141568 0,-5.612144 4.77013,-13.635415 9.58876,-16.12731 12.88671,-6.66419 28.4107,1.815044 28.4107,15.516855 0,6.150731 -4.47924,14.247632 -9.24938,16.712542 -6.26024,3.23876 -15.43071,2.802456 -20.21521,-0.951523 z m 29.74649,-63.8034575 c -5.97481,-1.2746028 -11.4882,-6.0914775 -14.03935,-12.2529655 -2.21361,-5.340996 0.5027,-20.877603 8.46496,-48.45176 26.17018,-90.623599 90.23394,-159.358829 170.17547,-182.588299 10.7916,-3.13463 12.26372,-3.23515 18.0069,-1.23882 11.612095,4.04665 16.687407,17.72509 10.39665,28.02122 -3.28179,5.36974 -6.09324,6.91374 -22.18105,12.17934 -40.69963,13.31947 -77.38851,40.52734 -102.48691,76.00264 -18.39294,25.99428 -34.84518,65.167906 -42.68354,101.627004 -1.77731,8.25306 -3.82576,16.12731 -4.55825,17.497149 -3.82223,7.1416663 -12.68204,11.0070168 -21.09488,9.2009678 z M 356.59995,-253.75152 c -1.89229,-0.28729 -11.46845,-5.6624 -21.27988,-11.95316 -20.84347,-13.35889 -42.00836,-23.88658 -66.90033,-33.27431 -21.79324,-8.22069 -26.18281,-12.13982 -26.18281,-23.3821 0,-8.91721 4.74324,-15.63352 12.95319,-18.34444 6.59594,-2.17587 13.74845,-0.23341 41.95458,11.42533 27.99246,11.56721 68.36708,34.522 77.13898,43.85938 4.28181,4.55834 5.82756,14.47204 3.23162,20.73943 -3.17237,7.65698 -11.9999,12.27097 -20.91535,10.92987 z" id="path540-4" /><path d="m -97.442822,14.444705 c -16.044688,-5.5780192 -16.604788,-32.001371 -1.346469,-63.392379 14.992637,-30.836193 49.442782,-53.094386 82.304153,-53.178766 14.8112537,0 22.5993547,6.50255 22.5993547,18.978164 0,12.28885 -6.49003795,17.863344 -22.8812677,19.656789 -14.81849,1.615852 -24.917098,6.08971 -35.128754,15.541981 -3.459368,3.203059 -6.53891,6.860967 -9.178064,10.835649 -6.715472,10.113915 -10.579523,22.279062 -10.593708,34.2212825 -0.009,5.4828765 -4.518744,13.8220845 -8.653388,15.9889545 -5.073555,2.660669 -11.825652,3.192116 -17.129005,1.346562 z" style="fill:black;fill-opacity:1;stroke:none;stroke-width:1.52003;stroke-opacity:0.466667" id="path1135" /><circle style="fill:white;fill-opacity:0;stroke:black;stroke-width:34.769;stroke-linecap:round;stroke-linejoin:round;stroke-dasharray:none;stroke-opacity:1" id="path1383" cx="110.4187" cy="-426.66977" r="73.289322" /><circle style="fill:white;fill-opacity:0;stroke:black;stroke-width:46.6354;stroke-linecap:round;stroke-linejoin:round;stroke-dasharray:none;stroke-opacity:1" id="path1383-2" cx="567.08783" cy="-226.18582" r="98.302567" /><circle style="fill:white;fill-opacity:0;stroke:black;stroke-width:34.769;stroke-linecap:round;stroke-linejoin:round;stroke-dasharray:none;stroke-opacity:1" id="path1383-6" cx="657.76154" cy="363.51831" r="73.289322" /><rect style="fill:none;fill-opacity:1;stroke:black;stroke-width:27.064;stroke-linecap:round;stroke-linejoin:round;stroke-dasharray:none;stroke-opacity:1" id="rect2093" width="5.5387073" height="160.18904" x="110.23488" y="-353.56427" /><rect style="fill:none;fill-opacity:1;stroke:black;stroke-width:27.064;stroke-linecap:round;stroke-linejoin:round;stroke-dasharray:none;stroke-opacity:1" id="rect2093-1" width="5.5387073" height="160.18904" x="177.61044" y="-463.8924" transform="rotate(50.552216)" /><rect style="fill:none;fill-opacity:1;stroke:black;stroke-width:39.1113;stroke-linecap:round;stroke-linejoin:round;stroke-dasharray:none;stroke-opacity:1" id="rect2093-4" width="7.6401343" height="242.5262" x="-23.59376" y="433.87314" transform="matrix(0.65070078,-0.75933424,0.88654372,0.46264482,0,0)" /></g></svg>
