<svg width="4674.725" height="4976.304" viewBox="0 0 1236.854 1316.647" xmlns="http://www.w3.org/2000/svg"><g transform="translate(488.42 517.344)"><path d="M160.522 430.818c-17.71-7.555-32.98-28.813-33.04-45.99 0-13.56-8.016-46.006-16.356-66.598-4.631-11.438-17.98-35.21-29.665-52.824-11.685-17.615-22.448-34.291-23.922-37.057-2.525-4.742-4.83-4.989-39.957-4.258-41.282.862-57.459-1.99-79.488-13.978-15.485-8.426-30.388-25.11-36.14-40.456-5.303-14.145-5.784-14.516-21.593-16.61-6.88-.922-21.376-4.897-32.208-8.848-39.71-14.493-60.543-35.765-68.1-69.536-2.526-11.245-2.11-18.54 2.673-49.241 15.087-96.521 34.09-132.423 86.895-164.144 11.067-6.646 25.536-17.128 32.152-23.29 20.984-19.543 48.745-28.444 88.59-28.405 9.684.012 36.028-1.367 58.542-3.033 29.467-2.2 48.46-2.72 69.434.445 9.139 1.379 18.653 3.457 29.573 6.4 1.141.309 2.298.626 3.472.953 14.943 4.161 32.567 9.887 55.304 17.568 16.602 5.606 38.109 12.588 47.794 15.517 25.325 7.654 47.168 23.43 80.273 57.985 28.124 29.356 29.737 31.656 49.235 70.21C396.008-.61 405.782 22.41 408.183 32.62c4.593 19.51 3.461 44.619-2.912 64.925-3.024 9.62-3.565 18.013-2.317 35.69 1.248 17.42.683 26.419-2.258 36.523-7.89 27.146-27.787 48.513-53.7 57.673-10.595 3.743-11.893 5.11-14.457 15.217-5.642 22.22-19.662 38.31-40.215 46.16-9.706 3.708-17.134 4.148-49.782 2.941-8.34-.304-15.751-.7-22.446-1.231-25.967-2.059-41.153-6.134-58.008-14.675-26.035-13.194-46.318-43.674-49.04-73.692-1.782-19.751.357-27.004 9.386-31.671 15.565-8.048 30.129 3.33 30.227 23.613 0 23.786 16.138 44.244 40.783 52.073 13.942 4.426 74.45 7.986 86.093 5.065 7.385-1.842 16.447-17.665 16.447-28.702 0-16.632 7.888-28.124 19.33-28.16 10.074-.03 24.052-5.716 32.68-13.289 13.916-12.22 16.62-21.162 14.59-48.26-1.455-19.612-.89-25.967 3.866-42.943 9.358-33.358 7.1-46.493-15.937-92.62-18.613-37.274-19.739-38.858-48.739-68.618-17.386-17.844-34.297-32.79-40.815-36.077-6.12-3.083-24.46-9.412-40.759-14.058-16.296-4.647-39.921-12.422-52.5-17.28-10.551-4.075-19.795-7.25-28.606-9.657-22.13-6.046-41.524-7.251-72.015-5.732-129.22 6.438-121.433 5.083-142.697 24.855-6.601 6.138-19.926 15.987-29.608 21.887-26.37 16.064-32.999 21.78-43.51 37.52-12.092 18.109-18.833 39.595-26.86 85.627-7.687 44.063-7.803 50.243-1.22 63.178 8.893 17.428 40.772 32.93 75.03 36.487 28.643 2.971 33.436 6.542 36.784 27.428 3.737 23.29 21.703 37.209 54.27 42.043 14.458 2.139 24.384 1.782 51.595-1.872 39.128-5.256 40.542-4.775 47.503 16.186 2.139 6.462 8.075 17.93 13.173 25.488 30.604 45.36 36.472 55.09 43.724 72.483 10.295 24.692 16.317 45.85 19.986 70.213 1.604 10.698 4.088 20.868 5.505 22.597 6.299 7.692 34.386-.505 30.714-8.975-8.91-20.533-19.074-50.326-20.354-59.654-1.337-9.724-.713-12.333 4.26-17.615 16.93-20.912 28.287-27.975 36.276-28.548 12.21-.876 16.551 13.41 20.892 16.586 1.694 1.228-10.691 12.864-16.169 24.707-2.209 4.775-3.295 9.584-1.883 13.759 4.911 14.525 11.685 31.139 15.051 36.92 3.776 6.489 6.12 14.454 6.12 20.818 0 8.785-1.604 11.902-10.758 21.067-14.899 14.9-31.302 22.318-51.769 23.42-9.192.505-19.377-.297-22.633-1.634z"/><path d="M-34.77 796.956c-5.092-2.763-7.065-6.484-13.246-24.98-9.178-27.466-22.992-56.24-36.74-76.516-8.624-12.723-25.033-32.093-31.117-36.733l-4.986-3.801-31.635 11.494c-99.167 36.031-149.86 43.362-184.743 26.714-18.612-8.883-30.646-25.174-37.76-51.12-4.072-14.849-4.612-35.359-1.562-59.382 1.167-9.25 1.651-18.716 1.077-21.032-1.58-6.283-13.454-18.107-23.644-23.538-10.887-5.802-16.19-11.763-17.531-19.707-1.167-6.944 1.292-17.429 5.499-23.328l2.942-4.133-6.208-3.169c-14.926-7.614-25.623-22.364-23.477-32.37.574-2.676 4.68-12.843 9.127-22.595 9.014-19.77 12.838-31.303 12.838-38.71 0-5.928-3.07-8.494-24.32-20.318-30.41-16.922-42.018-27.39-46.645-42.07-4.89-15.513.952-28.848 33.537-76.496 52.32-76.52 63.06-94.704 73.338-124.186l4.345-12.465-16.095-16.417c-17.485-17.83-22.54-25.288-26.5-39.083-3.437-11.975-2.083-22.61 4.852-38.127 14.161-31.684 26.65-64.515 32.407-85.202 16.806-60.366 23.659-79.529 38.22-106.895 52.603-98.846 154.19-160.367 297.636-180.249 19.937-2.763 25.048-1.867 31.224 5.47 6.85 8.142 4.186 23.013-4.97 27.749-2.314 1.203-12.29 3.292-22.168 4.659-72.296 9.998-132.17 31.03-180.59 63.437-25.838 17.29-56.703 47.989-73.062 72.661-20.307 30.628-32.016 58.246-44.41 104.73-7.96 29.856-16.405 54.911-26.948 79.954-4.225 10.032-9.59 23.849-11.923 30.705l-4.242 12.463 4.386 6.537c2.41 3.594 11.306 12.967 19.768 20.827 20.409 18.959 23.4 23.54 22.305 34.16-1.991 19.287-21.287 65.015-39.704 94.09-4.646 7.335-19.495 28.926-32.997 47.98-24.557 34.65-40.885 59.954-40.885 63.356 0 2.325 14.115 12.088 29.64 20.502 36.348 19.698 43.093 28.806 41.38 55.886-.879 13.867-4.389 25.968-13.084 45.077-2.635 5.794-4.267 10.986-3.624 11.537.646.556 3.563 1.9 6.49 3 9.174 3.449 15.337 7.822 19.906 14.13 6.937 9.577 5.763 25.058-2.628 34.659-1.866 2.135-1.041 3.259 6.892 9.499 15.659 12.301 25.917 29.15 27.158 44.606.413 5.221-.45 19.636-1.934 32.032-2.24 18.74-2.393 24.273-.898 32.827 3.58 20.555 13.126 34.364 25.578 37.003 10.856 2.302 36.958 1.096 54.373-2.497 31.969-6.608 63.064-16.818 147.443-48.409 20.065-7.511 49.82-18.233 66.121-23.825 45.237-15.515 69.639-28.102 85.734-44.217 9.247-9.26 12.992-17.25 13.035-27.809 0-11.495 3.647-18.222 11.643-21.76 6.923-3.062 12.124-2.646 18.488 1.473 5.452 3.53 7.905 9.863 7.885 20.359 0 35.199-26.19 65.737-76.42 89.333-8.538 4.01-30.914 12.608-49.724 19.105-45.687 15.78-44.924 15.442-42.238 18.644 12.727 15.18 17.29 21.124 24.727 32.215 10.905 16.264 29.163 52.878 35.917 72.023l5.154 14.614h221.67c121.92 0 221.41-.503 221.089-1.131-35.515-69.452-56.624-138.266-63.462-206.886-1.993-19.99-2.007-68.247-.018-86.1 3.928-35.405 13.332-71.676 26.253-101.25 15.287-34.994 23.163-45.434 34.272-45.434 5.647 0 13.063 4.198 15.9 9 4.335 7.34 3.292 14.488-4.1 28.088-17.56 32.297-28.837 68.191-33.699 107.257-2.51 20.168-2.84 67.572-.61 87.46 8.07 71.947 32.066 144.273 68.75 207.218 10.004 17.17 11.355 23.729 6.432 31.24-5.973 9.119 11.463 8.552-260.97 8.485-217.934 0-250.271-.341-253.901-2.318zm542.219-583.328c-7.794-7.793-8.136-13.479-1.688-28.125 12.361-28.11 18.862-64.584 20.235-113.51.952-33.598-.772-63.31-4.951-85.922-4.189-22.65-4.345-25.838-1.526-31.073 6.797-12.62 27.107-13.325 33.385-1.167 3.024 5.86 8.045 30.032 10.672 51.382 8.42 68.433 1.454 139.657-18.255 186.748-9.282 22.172-13.671 26.644-26.203 26.685-5.477.018-7.477-.844-11.66-5.025zM-323.8 58.94c-4.709-3.704-8.535-10.492-8.535-15.141 0-5.613 4.77-13.636 9.59-16.128 12.886-6.664 28.41 1.815 28.41 15.517 0 6.15-4.48 14.248-9.25 16.713-6.26 3.238-15.43 2.802-20.215-.952zm29.747-63.803c-5.975-1.275-11.488-6.092-14.04-12.253-2.213-5.341.503-20.878 8.465-48.452 26.17-90.624 90.234-159.359 170.176-182.588 10.791-3.135 12.264-3.236 18.007-1.24 11.612 4.047 16.687 17.726 10.396 28.022-3.281 5.37-6.093 6.914-22.18 12.18-40.7 13.319-77.39 40.527-102.488 76.002-18.392 25.994-34.845 65.168-42.683 101.627-1.777 8.253-3.826 16.127-4.558 17.497-3.823 7.142-12.682 11.007-21.095 9.201zM356.6-253.752c-1.892-.287-11.469-5.662-21.28-11.953-20.843-13.359-42.008-23.886-66.9-33.274-21.794-8.22-26.183-12.14-26.183-23.382 0-8.917 4.743-15.634 12.953-18.345 6.596-2.175 13.749-.233 41.955 11.426 27.992 11.567 68.367 34.522 77.139 43.86 4.281 4.558 5.827 14.471 3.231 20.739-3.172 7.657-12 12.27-20.915 10.93z"/><path d="M-97.443 14.445c-16.045-5.578-16.605-32.002-1.346-63.393 14.992-30.836 49.442-53.094 82.304-53.178 14.811 0 22.6 6.502 22.6 18.978 0 12.289-6.49 17.863-22.882 19.657-14.819 1.615-24.917 6.09-35.129 15.541-3.46 3.204-6.539 6.861-9.178 10.836C-67.789-27-71.654-14.834-71.668-2.893c-.009 5.483-4.518 13.823-8.653 15.99-5.074 2.66-11.826 3.191-17.129 1.346z"/><circle cx="110.419" cy="-426.67" r="73.289" fill="none" stroke="#000" stroke-width="34.769" stroke-linecap="round" stroke-linejoin="round"/><circle cx="567.088" cy="-226.186" r="98.303" fill="none" stroke="#000" stroke-width="46.635" stroke-linecap="round" stroke-linejoin="round"/><circle cx="657.762" cy="363.518" r="73.289" fill="none" stroke="#000" stroke-width="34.769" stroke-linecap="round" stroke-linejoin="round"/><path fill="none" stroke="#000" stroke-width="27.064" stroke-linecap="round" stroke-linejoin="round" d="M110.235-353.564h5.539v160.189h-5.539zM471.068-157.594l3.52 4.277-123.7 101.78-3.518-4.277z"/><path transform="matrix(.6507 -.75933 .88654 .46264 0 0)" fill="none" stroke="#000" stroke-width="39.111" stroke-linecap="round" stroke-linejoin="round" d="M-23.594 433.873h7.64v242.526h-7.64z"/></g></svg>