<svg width="5041.11" height="5366.325" viewBox="0 0 1333.794 1419.84" xmlns="http://www.w3.org/2000/svg"><g transform="translate(587.726 555.23)"><path d="M112.076 467.245c-19.098-8.147-35.566-31.07-35.63-49.595 0-14.623-8.644-49.612-17.637-71.817-4.995-12.335-19.39-37.97-31.99-56.965-12.6-18.995-24.208-36.978-25.797-39.961-2.724-5.114-5.21-5.38-43.089-4.591-44.517.929-61.962-2.147-85.718-15.074-16.699-9.086-32.77-27.079-38.972-43.627-5.719-15.253-6.238-15.654-23.285-17.913-7.42-.993-23.052-5.28-34.733-9.54-42.822-15.629-65.288-38.568-73.438-74.986-2.724-12.127-2.275-19.992 2.883-53.1 16.27-104.087 36.76-142.802 93.706-177.01 11.934-7.166 27.537-18.47 34.672-25.114 22.628-21.075 52.565-30.674 95.532-30.632 10.444.013 38.853-1.474 63.131-3.271 31.777-2.372 52.259-2.933 74.876.48 9.855 1.487 20.115 3.728 31.89 6.903 1.232.332 2.48.674 3.745 1.026 16.114 4.488 35.12 10.663 59.638 18.945 17.903 6.046 41.096 13.575 51.54 16.734 27.31 8.253 50.865 25.265 86.565 62.53 30.327 31.656 32.067 34.136 53.094 75.712 12.96 25.624 23.5 50.448 26.089 61.46 4.953 21.039 3.732 48.114-3.14 70.013-3.262 10.374-3.845 19.424-2.5 38.487 1.346 18.784.738 28.489-2.434 39.385-8.51 29.273-29.966 52.316-57.91 62.193-11.424 4.037-12.824 5.51-15.59 16.41-6.083 23.961-21.202 41.313-43.366 49.778-10.467 3.998-18.477 4.473-53.684 3.172-8.994-.329-16.986-.756-24.205-1.329-28.002-2.22-44.378-6.614-62.555-15.825-28.075-14.228-49.947-47.096-52.882-79.468-1.922-21.299.384-29.12 10.12-34.152 16.786-8.68 32.491 3.591 32.597 25.464 0 25.65 17.403 47.711 43.979 56.153 15.035 4.774 80.285 8.612 92.84 5.463 7.965-1.987 17.737-19.05 17.737-30.953 0-17.935 8.506-30.327 20.844-30.365 10.864-.032 25.938-6.165 35.242-14.331 15.007-13.178 17.922-22.821 15.734-52.043-1.57-21.149-.96-28.002 4.168-46.308 10.092-35.973 7.658-50.137-17.185-99.88-20.072-40.195-21.286-41.903-52.559-73.996-18.749-19.242-36.985-35.36-44.014-38.904-6.6-3.325-26.377-10.15-43.954-15.16-17.573-5.011-43.05-13.396-56.615-18.634-11.377-4.395-21.346-7.818-30.848-10.414-23.864-6.52-44.778-7.82-77.659-6.182-139.348 6.943-130.95 5.482-153.88 26.804-7.119 6.619-21.488 17.24-31.93 23.602-28.437 17.323-35.585 23.487-46.92 40.461-13.04 19.528-20.309 42.698-28.966 92.338-8.288 47.516-8.413 54.18-1.313 68.13 9.589 18.793 43.966 35.511 80.91 39.346 30.888 3.204 36.055 7.055 39.666 29.578 4.03 25.115 23.404 40.124 58.525 45.337 15.59 2.307 26.293 1.922 55.637-2.018 42.195-5.668 43.72-5.149 51.226 17.454 2.307 6.969 8.708 19.335 14.206 27.486 33.003 48.916 39.33 59.409 47.151 78.164 11.101 26.627 17.596 49.445 21.552 75.716 1.73 11.537 4.409 22.504 5.937 24.368 6.792 8.295 37.081-.544 33.121-9.678-9.608-22.142-20.568-54.27-21.95-64.33-1.44-10.486-.768-13.3 4.595-18.996 18.257-22.55 30.504-30.167 39.12-30.785 13.166-.944 17.847 14.46 22.528 17.887 1.827 1.324-11.529 13.871-17.436 26.643-2.382 5.15-3.553 10.335-2.03 14.837 5.296 15.663 12.6 33.58 16.23 39.814 4.072 6.997 6.6 15.586 6.6 22.45 0 9.473-1.73 12.834-11.6 22.717-16.068 16.068-33.756 24.068-55.828 25.256-9.912.545-20.895-.32-24.406-1.762z" fill="#ff5722"/><path d="M-98.522 862.08c-5.49-2.98-7.619-6.993-14.284-26.938-9.897-29.62-24.795-60.648-39.619-82.513-9.3-13.72-26.996-34.609-33.557-39.613l-5.376-4.099-34.115 12.395c-106.94 38.856-161.605 46.76-199.222 28.808-20.07-9.58-33.048-27.147-40.72-55.126-4.39-16.013-4.974-38.13-1.684-64.036 1.258-9.976 1.78-20.183 1.161-22.68-1.703-6.777-14.508-19.527-25.497-25.384-11.74-6.257-17.46-12.684-18.905-21.251-1.259-7.489 1.394-18.795 5.93-25.157l3.173-4.457-6.695-3.417c-16.096-8.21-27.63-24.117-25.317-34.906.62-2.887 5.047-13.85 9.843-24.367 9.72-21.32 13.844-33.756 13.844-41.744 0-6.393-3.31-9.16-26.227-21.91-32.792-18.249-45.31-29.538-50.3-45.367-5.274-16.729 1.026-31.11 36.165-82.492 56.421-82.516 68.003-102.126 79.086-133.92l4.685-13.441-17.356-17.703c-18.855-19.229-24.307-27.271-28.578-42.147-3.705-12.914-2.245-24.383 5.234-41.116 15.27-34.166 28.738-69.57 34.947-91.88 18.123-65.096 25.512-85.76 41.215-115.272 56.726-106.593 166.275-172.936 320.963-194.376 21.5-2.98 27.011-2.013 33.671 5.9 7.388 8.78 4.515 24.815-5.359 29.922-2.495 1.298-13.254 3.551-23.906 5.024-77.961 10.782-142.527 33.463-194.744 68.41-27.863 18.645-61.147 51.75-78.788 78.356-21.898 33.028-34.525 62.81-47.89 112.938-8.583 32.196-17.69 59.215-29.06 86.22-4.556 10.819-10.343 25.718-12.858 33.112l-4.574 13.44 4.73 7.049c2.6 3.876 12.192 13.984 21.317 22.46 22.008 20.444 25.234 25.384 24.053 36.836-2.147 20.799-22.956 70.11-42.815 101.465-5.01 7.91-21.023 31.193-35.584 51.74-26.481 37.367-44.09 64.653-44.09 68.322 0 2.507 15.222 13.035 31.964 22.11 39.197 21.241 46.47 31.063 44.624 60.265-.949 14.954-4.734 28.003-14.11 48.61-2.842 6.247-4.602 11.846-3.909 12.44.697.6 3.843 2.05 6.999 3.236 9.893 3.719 16.54 8.435 21.467 15.238 7.48 10.327 6.214 27.021-2.835 37.375-2.011 2.302-1.123 3.514 7.433 10.244 16.885 13.265 27.948 31.435 29.286 48.102.445 5.63-.484 21.174-2.085 34.542-2.417 20.208-2.581 26.175-.968 35.4 3.86 22.166 14.154 37.058 27.582 39.904 11.707 2.482 39.855 1.18 58.634-2.693 34.475-7.127 68.007-18.137 159-52.203 21.636-8.1 53.724-19.662 71.303-25.693 48.782-16.731 75.096-30.305 92.453-47.682 9.972-9.986 14.01-18.602 14.057-29.99 0-12.396 3.932-19.65 12.555-23.464 7.465-3.303 13.074-2.853 19.937 1.588 5.88 3.806 8.524 10.636 8.503 21.954 0 37.958-28.242 70.89-82.408 96.335-9.208 4.325-33.339 13.596-53.622 20.603-49.268 17.015-48.445 16.651-45.549 20.105 13.725 16.37 18.646 22.78 26.665 34.74 11.76 17.538 31.449 57.022 38.732 77.667l5.558 15.76h239.044c131.475 0 238.763-.543 238.417-1.22-38.299-74.895-61.062-149.103-68.437-223.101-2.149-21.556-2.164-73.596-.019-92.848 4.236-38.18 14.377-77.293 28.31-109.185 16.486-37.737 24.98-48.995 36.96-48.995 6.088 0 14.086 4.526 17.145 9.705 4.675 7.915 3.55 15.624-4.422 30.29-18.936 34.828-31.097 73.535-36.34 115.663-2.706 21.749-3.062 72.868-.657 94.315 8.702 77.586 34.579 155.58 74.137 223.459 10.79 18.516 12.246 25.588 6.937 33.688-6.441 9.833 12.362 9.222-281.423 9.15-235.015 0-269.887-.368-273.801-2.5zm584.716-629.047c-8.405-8.405-8.774-14.536-1.82-30.33 13.33-30.314 20.34-69.646 21.82-122.407 1.027-36.23-.832-68.271-5.339-92.655-4.517-24.425-4.685-27.864-1.646-33.509 7.33-13.608 29.232-14.369 36.003-1.258 3.26 6.319 8.675 32.385 11.507 55.408 9.08 73.798 1.568 150.603-19.685 201.385-10.01 23.91-14.743 28.732-28.256 28.777-5.907.019-8.064-.91-12.575-5.419zM-410.204 66.22c-5.078-3.994-9.204-11.314-9.204-16.329 0-6.052 5.144-14.704 10.34-17.39 13.897-7.187 30.638 1.956 30.638 16.732 0 6.633-4.83 15.364-9.974 18.022-6.751 3.493-16.64 3.023-21.8-1.026zm32.078-68.804c-6.443-1.375-12.388-6.57-15.14-13.214-2.387-5.76.543-22.514 9.129-52.249 28.221-97.726 97.306-171.849 183.513-196.899 11.637-3.38 13.225-3.488 19.418-1.336 12.522 4.364 17.995 19.115 11.212 30.218-3.54 5.79-6.571 7.455-23.92 13.134-43.89 14.363-83.454 43.703-110.52 81.96-19.834 28.03-37.575 70.275-46.028 109.591-1.917 8.9-4.126 17.392-4.916 18.869-4.121 7.701-13.676 11.87-22.748 9.922zm701.648-268.394c-2.04-.31-12.368-6.106-22.948-12.89-22.477-14.406-45.3-25.759-72.144-35.882-23.501-8.865-28.235-13.092-28.235-25.215 0-9.616 5.115-16.859 13.969-19.782 7.113-2.347 14.826-.252 45.243 12.32 30.186 12.474 73.725 37.228 83.184 47.297 4.618 4.916 6.285 15.607 3.485 22.365-3.42 8.257-12.94 13.233-22.554 11.787z" fill="#ff5722"/><path d="M-166.107 18.238c-17.302-6.015-17.906-34.51-1.452-68.36 16.168-33.254 53.318-57.256 88.755-57.347 15.972 0 24.37 7.012 24.37 20.465 0 13.252-6.998 19.264-24.674 21.198-15.98 1.742-26.87 6.566-37.882 16.76-3.73 3.454-7.052 7.398-9.898 11.685-7.241 10.906-11.408 24.025-11.424 36.903-.01 5.912-4.872 14.905-9.331 17.242-5.471 2.87-12.753 3.442-18.472 1.452z" fill="#ff5722"/><circle cx="58.046" cy="-457.449" r="79.033" fill="none" stroke="#ff5722" stroke-width="37.494" stroke-linecap="round" stroke-linejoin="round"/><circle cx="550.507" cy="-241.252" r="106.007" fill="none" stroke="#ff5722" stroke-width="50.291" stroke-linecap="round" stroke-linejoin="round"/><circle cx="648.287" cy="394.671" r="79.033" fill="none" stroke="#ff5722" stroke-width="37.494" stroke-linecap="round" stroke-linejoin="round"/><path fill="none" stroke="#ff5722" stroke-width="29.185" stroke-linecap="round" stroke-linejoin="round" d="M57.848-378.614h5.973v172.744h-5.973zM446.962-167.284l3.795 4.612L317.364-52.915l-3.795-4.612z"/><path transform="matrix(.6507 -.75933 .88654 .46264 0 0)" fill="none" stroke="#ff5722" stroke-width="42.177" stroke-linecap="round" stroke-linejoin="round" d="M-56.845 422.09h8.239v261.534h-8.239z"/></g></svg>